<?xml version="1.0" standalone="no"?><!DOCTYPE svg PUBLIC "-//W3C//DTD SVG 1.1//EN" "http://www.w3.org/Graphics/SVG/1.1/DTD/svg11.dtd"><svg t="1496287857238" class="icon" style="" viewBox="0 0 1024 1024" version="1.1" xmlns="http://www.w3.org/2000/svg" p-id="2363" xmlns:xlink="http://www.w3.org/1999/xlink" width="32" height="32"><defs><style type="text/css"></style></defs><path d="M512 938.09a27.69 27.69 0 0 1-19.64-8.09L87 524.63c-48.39-48.39-75-113-75-181.78s26.64-133.41 75-181.78c100.23-100.21 263.29-100.23 363.53 0L512 222.49l61.41-61.41c48.39-48.39 113-75 181.78-75s133.41 26.64 181.78 75c48.39 48.37 75 112.93 75 181.78s-26.64 133.38-75 181.78L531.64 930a27.69 27.69 0 0 1-19.64 8.09zM268.81 141.33a200.23 200.23 0 0 0-142.5 59c-37.9 37.9-58.76 88.49-58.76 142.5a200.09 200.09 0 0 0 58.76 142.5L512 871l385.69-385.65a200.09 200.09 0 0 0 58.76-142.5c0-54-20.86-104.6-58.76-142.5-37.9-37.9-88.49-58.76-142.5-58.76a200.09 200.09 0 0 0-142.5 58.76l-81.05 81.05a27.77 27.77 0 0 1-39.28 0l-81.08-81.05a200.21 200.21 0 0 0-142.47-59.02z" p-id="2364" fill="#8a8a8a"></path></svg>