<?xml version="1.0" standalone="no"?><!DOCTYPE svg PUBLIC "-//W3C//DTD SVG 1.1//EN" "http://www.w3.org/Graphics/SVG/1.1/DTD/svg11.dtd"><svg t="1496301957838" class="icon" style="" viewBox="0 0 1024 1024" version="1.1" xmlns="http://www.w3.org/2000/svg" p-id="4242" xmlns:xlink="http://www.w3.org/1999/xlink" width="128" height="128"><defs><style type="text/css"></style></defs><path d="M512 0C229.69344 0 0 229.69344 0 512s229.69344 512 512 512 512-229.69344 512-512S794.30656 0 512 0z m0 967.10656C261.05856 967.10656 56.89344 762.94144 56.89344 512S261.05856 56.89344 512 56.89344 967.10656 261.05856 967.10656 512 762.94144 967.10656 512 967.10656z" p-id="4243" fill="#8a8a8a"></path><path d="M774.22592 651.53024C716.032 724.46976 618.00448 768 512 768s-204.05248-43.55072-262.22592-116.46976a28.44672 28.44672 0 1 0-44.50304 35.44064C274.13504 773.33504 388.80256 824.89344 512 824.89344s237.80352-51.52768 306.66752-137.86112a28.440576 28.440576 0 0 0-44.4416-35.50208z" p-id="4244" fill="#8a8a8a"></path><path d="M284.44672 398.22336m-56.89344 0a56.89344 56.89344 0 1 0 113.78688 0 56.89344 56.89344 0 1 0-113.78688 0Z" p-id="4245" fill="#8a8a8a"></path><path d="M739.55328 398.22336m-56.89344 0a56.89344 56.89344 0 1 0 113.78688 0 56.89344 56.89344 0 1 0-113.78688 0Z" p-id="4246" fill="#8a8a8a"></path></svg>