<?xml version="1.0" standalone="no"?><!DOCTYPE svg PUBLIC "-//W3C//DTD SVG 1.1//EN" "http://www.w3.org/Graphics/SVG/1.1/DTD/svg11.dtd"><svg t="1496310095280" class="icon" style="" viewBox="0 0 1152 1024" version="1.1" xmlns="http://www.w3.org/2000/svg" p-id="1543" xmlns:xlink="http://www.w3.org/1999/xlink" width="144" height="128"><defs><style type="text/css"></style></defs><path d="M772.617081 533.294306L656.679221 516.419099l-51.950297-105.121601c-10.747146-21.885935-46.617041-21.885935-57.364187 0L495.414439 516.419099l-115.937859 16.875207a31.988021 31.988021 0 0 0-17.750645 54.553572l83.961357 81.784282-19.812531 115.523179a31.976502 31.976502 0 0 0 46.398182 33.715858L576.04683 764.398258l103.773887 54.530534a31.976502 31.976502 0 0 0 46.398182-33.715859l-19.81253-115.523178 83.961357-81.784282a31.988021 31.988021 0 0 0-17.750645-54.553572zM649.69876 635.593772a31.988021 31.988021 0 0 0-9.21513 28.313489l11.691696 68.215002-61.280617-32.183843a31.838276 31.838276 0 0 0-29.741833 0l-61.280617 32.183843L511.540917 663.907261a31.988021 31.988021 0 0 0-9.21513-28.313489l-49.531326-48.310321 68.4569-9.963859a31.941946 31.941946 0 0 0 24.086047-17.497229l30.709422-62.086941 30.651828 62.086941a31.941946 31.941946 0 0 0 24.086047 17.497229l68.514494 9.963859z" p-id="1544" fill="#d50000"></path><path d="M1097.369795 233.445482l-163.568565 163.568564a418.044391 418.044391 0 0 0-57.502413-76.024826l266.317268-266.248155a31.993781 31.993781 0 0 0-45.24629-45.24629L828.564441 278.265572c-70.104105-53.816362-157.509616-86.196026-252.517611-86.196026s-182.413506 32.368146-252.517611 86.196026L54.723865 9.460218A32.006452 32.006452 0 1 0 9.477575 54.741065L275.748768 320.98922a418.044391 418.044391 0 0 0-57.502414 76.024826l-163.568564-163.568564A31.993781 31.993781 0 0 0 9.4315 278.691772l179.119097 179.119097a413.114296 413.114296 0 0 0-28.50931 150.218145c0 229.353077 186.606391 415.959467 415.959468 415.959467s415.959467-186.606391 415.959467-415.959467a413.114296 413.114296 0 0 0-28.50931-150.218145l179.119098-179.119097a31.993781 31.993781 0 0 0-45.246291-45.24629zM576.04683 960.000919c-194.070646 0-351.971906-157.889741-351.971906-351.971905S381.976184 256.068627 576.04683 256.068627s351.971906 157.889741 351.971906 351.960387S770.117476 960.000919 576.04683 960.000919z" p-id="1545" fill="#d50000"></path></svg>